<?xml version="1.0" encoding="utf-8" standalone="no"?>
<!DOCTYPE svg PUBLIC "-//W3C//DTD SVG 1.1//EN"
  "http://www.w3.org/Graphics/SVG/1.1/DTD/svg11.dtd">
<!-- Created with matplotlib (http://matplotlib.org/) -->
<svg height="345pt" version="1.1" viewBox="0 0 460 345" width="460pt" xmlns="http://www.w3.org/2000/svg" xmlns:xlink="http://www.w3.org/1999/xlink">
 <defs>
  <style type="text/css">
*{stroke-linecap:butt;stroke-linejoin:round;}
  </style>
 </defs>
 <g id="figure_1">
  <g id="patch_1">
   <path d="M 0 345.6 
L 460.8 345.6 
L 460.8 0 
L 0 0 
z
" style="fill:#ffffff;"/>
  </g>
  <g id="axes_1">
   <g id="patch_2">
    <path d="M 57.6 307.584 
L 414.72 307.584 
L 414.72 41.472 
L 57.6 41.472 
z
" style="fill:#ffffff;"/>
   </g>
   <g id="matplotlib.axis_1">
    <g id="xtick_1">
     <g id="line2d_1">
      <defs>
       <path d="M 0 0 
L 0 3.5 
" id="m0906a379a0" style="stroke:#000000;stroke-width:0.8;"/>
      </defs>
      <g>
       <use style="stroke:#000000;stroke-width:0.8;" x="73.832727" xlink:href="#m0906a379a0" y="307.584"/>
      </g>
     </g>
     <g id="text_1">
      <!-- 0.0 -->
      <defs>
       <path d="M 31.78125 66.40625 
Q 24.171875 66.40625 20.328125 58.90625 
Q 16.5 51.421875 16.5 36.375 
Q 16.5 21.390625 20.328125 13.890625 
Q 24.171875 6.390625 31.78125 6.390625 
Q 39.453125 6.390625 43.28125 13.890625 
Q 47.125 21.390625 47.125 36.375 
Q 47.125 51.421875 43.28125 58.90625 
Q 39.453125 66.40625 31.78125 66.40625 
M 31.78125 74.21875 
Q 44.046875 74.21875 50.515625 64.515625 
Q 56.984375 54.828125 56.984375 36.375 
Q 56.984375 17.96875 50.515625 8.265625 
Q 44.046875 -1.421875 31.78125 -1.421875 
Q 19.53125 -1.421875 13.0625 8.265625 
Q 6.59375 17.96875 6.59375 36.375 
Q 6.59375 54.828125 13.0625 64.515625 
Q 19.53125 74.21875 31.78125 74.21875 
" id="DejaVuSans-30"/>
       <path d="M 10.6875 12.40625 
L 21 12.40625 
L 21 0 
L 10.6875 0 
z
" id="DejaVuSans-2e"/>
      </defs>
      <g transform="translate(65.881165 322.182437)scale(0.1 -0.1)">
       <use xlink:href="#DejaVuSans-30"/>
       <use x="63.623047" xlink:href="#DejaVuSans-2e"/>
       <use x="95.410156" xlink:href="#DejaVuSans-30"/>
      </g>
     </g>
    </g>
    <g id="xtick_2">
     <g id="line2d_2">
      <g>
       <use style="stroke:#000000;stroke-width:0.8;" x="114.414545" xlink:href="#m0906a379a0" y="307.584"/>
      </g>
     </g>
     <g id="text_2">
      <!-- 0.5 -->
      <defs>
       <path d="M 10.796875 72.90625 
L 49.515625 72.90625 
L 49.515625 64.59375 
L 19.828125 64.59375 
L 19.828125 46.734375 
Q 21.96875 47.46875 24.109375 47.828125 
Q 26.265625 48.1875 28.421875 48.1875 
Q 40.625 48.1875 47.75 41.5 
Q 54.890625 34.8125 54.890625 23.390625 
Q 54.890625 11.625 47.5625 5.09375 
Q 40.234375 -1.421875 26.90625 -1.421875 
Q 22.3125 -1.421875 17.546875 -0.640625 
Q 12.796875 0.140625 7.71875 1.703125 
L 7.71875 11.625 
Q 12.109375 9.234375 16.796875 8.0625 
Q 21.484375 6.890625 26.703125 6.890625 
Q 35.15625 6.890625 40.078125 11.328125 
Q 45.015625 15.765625 45.015625 23.390625 
Q 45.015625 31 40.078125 35.4375 
Q 35.15625 39.890625 26.703125 39.890625 
Q 22.75 39.890625 18.8125 39.015625 
Q 14.890625 38.140625 10.796875 36.28125 
z
" id="DejaVuSans-35"/>
      </defs>
      <g transform="translate(106.462983 322.182437)scale(0.1 -0.1)">
       <use xlink:href="#DejaVuSans-30"/>
       <use x="63.623047" xlink:href="#DejaVuSans-2e"/>
       <use x="95.410156" xlink:href="#DejaVuSans-35"/>
      </g>
     </g>
    </g>
    <g id="xtick_3">
     <g id="line2d_3">
      <g>
       <use style="stroke:#000000;stroke-width:0.8;" x="154.996364" xlink:href="#m0906a379a0" y="307.584"/>
      </g>
     </g>
     <g id="text_3">
      <!-- 1.0 -->
      <defs>
       <path d="M 12.40625 8.296875 
L 28.515625 8.296875 
L 28.515625 63.921875 
L 10.984375 60.40625 
L 10.984375 69.390625 
L 28.421875 72.90625 
L 38.28125 72.90625 
L 38.28125 8.296875 
L 54.390625 8.296875 
L 54.390625 0 
L 12.40625 0 
z
" id="DejaVuSans-31"/>
      </defs>
      <g transform="translate(147.044801 322.182437)scale(0.1 -0.1)">
       <use xlink:href="#DejaVuSans-31"/>
       <use x="63.623047" xlink:href="#DejaVuSans-2e"/>
       <use x="95.410156" xlink:href="#DejaVuSans-30"/>
      </g>
     </g>
    </g>
    <g id="xtick_4">
     <g id="line2d_4">
      <g>
       <use style="stroke:#000000;stroke-width:0.8;" x="195.578182" xlink:href="#m0906a379a0" y="307.584"/>
      </g>
     </g>
     <g id="text_4">
      <!-- 1.5 -->
      <g transform="translate(187.626619 322.182437)scale(0.1 -0.1)">
       <use xlink:href="#DejaVuSans-31"/>
       <use x="63.623047" xlink:href="#DejaVuSans-2e"/>
       <use x="95.410156" xlink:href="#DejaVuSans-35"/>
      </g>
     </g>
    </g>
    <g id="xtick_5">
     <g id="line2d_5">
      <g>
       <use style="stroke:#000000;stroke-width:0.8;" x="236.16" xlink:href="#m0906a379a0" y="307.584"/>
      </g>
     </g>
     <g id="text_5">
      <!-- 2.0 -->
      <defs>
       <path d="M 19.1875 8.296875 
L 53.609375 8.296875 
L 53.609375 0 
L 7.328125 0 
L 7.328125 8.296875 
Q 12.9375 14.109375 22.625 23.890625 
Q 32.328125 33.6875 34.8125 36.53125 
Q 39.546875 41.84375 41.421875 45.53125 
Q 43.3125 49.21875 43.3125 52.78125 
Q 43.3125 58.59375 39.234375 62.25 
Q 35.15625 65.921875 28.609375 65.921875 
Q 23.96875 65.921875 18.8125 64.3125 
Q 13.671875 62.703125 7.8125 59.421875 
L 7.8125 69.390625 
Q 13.765625 71.78125 18.9375 73 
Q 24.125 74.21875 28.421875 74.21875 
Q 39.75 74.21875 46.484375 68.546875 
Q 53.21875 62.890625 53.21875 53.421875 
Q 53.21875 48.921875 51.53125 44.890625 
Q 49.859375 40.875 45.40625 35.40625 
Q 44.1875 33.984375 37.640625 27.21875 
Q 31.109375 20.453125 19.1875 8.296875 
" id="DejaVuSans-32"/>
      </defs>
      <g transform="translate(228.208438 322.182437)scale(0.1 -0.1)">
       <use xlink:href="#DejaVuSans-32"/>
       <use x="63.623047" xlink:href="#DejaVuSans-2e"/>
       <use x="95.410156" xlink:href="#DejaVuSans-30"/>
      </g>
     </g>
    </g>
    <g id="xtick_6">
     <g id="line2d_6">
      <g>
       <use style="stroke:#000000;stroke-width:0.8;" x="276.741818" xlink:href="#m0906a379a0" y="307.584"/>
      </g>
     </g>
     <g id="text_6">
      <!-- 2.5 -->
      <g transform="translate(268.790256 322.182437)scale(0.1 -0.1)">
       <use xlink:href="#DejaVuSans-32"/>
       <use x="63.623047" xlink:href="#DejaVuSans-2e"/>
       <use x="95.410156" xlink:href="#DejaVuSans-35"/>
      </g>
     </g>
    </g>
    <g id="xtick_7">
     <g id="line2d_7">
      <g>
       <use style="stroke:#000000;stroke-width:0.8;" x="317.323636" xlink:href="#m0906a379a0" y="307.584"/>
      </g>
     </g>
     <g id="text_7">
      <!-- 3.0 -->
      <defs>
       <path d="M 40.578125 39.3125 
Q 47.65625 37.796875 51.625 33 
Q 55.609375 28.21875 55.609375 21.1875 
Q 55.609375 10.40625 48.1875 4.484375 
Q 40.765625 -1.421875 27.09375 -1.421875 
Q 22.515625 -1.421875 17.65625 -0.515625 
Q 12.796875 0.390625 7.625 2.203125 
L 7.625 11.71875 
Q 11.71875 9.328125 16.59375 8.109375 
Q 21.484375 6.890625 26.8125 6.890625 
Q 36.078125 6.890625 40.9375 10.546875 
Q 45.796875 14.203125 45.796875 21.1875 
Q 45.796875 27.640625 41.28125 31.265625 
Q 36.765625 34.90625 28.71875 34.90625 
L 20.21875 34.90625 
L 20.21875 43.015625 
L 29.109375 43.015625 
Q 36.375 43.015625 40.234375 45.921875 
Q 44.09375 48.828125 44.09375 54.296875 
Q 44.09375 59.90625 40.109375 62.90625 
Q 36.140625 65.921875 28.71875 65.921875 
Q 24.65625 65.921875 20.015625 65.03125 
Q 15.375 64.15625 9.8125 62.3125 
L 9.8125 71.09375 
Q 15.4375 72.65625 20.34375 73.4375 
Q 25.25 74.21875 29.59375 74.21875 
Q 40.828125 74.21875 47.359375 69.109375 
Q 53.90625 64.015625 53.90625 55.328125 
Q 53.90625 49.265625 50.4375 45.09375 
Q 46.96875 40.921875 40.578125 39.3125 
" id="DejaVuSans-33"/>
      </defs>
      <g transform="translate(309.372074 322.182437)scale(0.1 -0.1)">
       <use xlink:href="#DejaVuSans-33"/>
       <use x="63.623047" xlink:href="#DejaVuSans-2e"/>
       <use x="95.410156" xlink:href="#DejaVuSans-30"/>
      </g>
     </g>
    </g>
    <g id="xtick_8">
     <g id="line2d_8">
      <g>
       <use style="stroke:#000000;stroke-width:0.8;" x="357.905455" xlink:href="#m0906a379a0" y="307.584"/>
      </g>
     </g>
     <g id="text_8">
      <!-- 3.5 -->
      <g transform="translate(349.953892 322.182437)scale(0.1 -0.1)">
       <use xlink:href="#DejaVuSans-33"/>
       <use x="63.623047" xlink:href="#DejaVuSans-2e"/>
       <use x="95.410156" xlink:href="#DejaVuSans-35"/>
      </g>
     </g>
    </g>
    <g id="xtick_9">
     <g id="line2d_9">
      <g>
       <use style="stroke:#000000;stroke-width:0.8;" x="398.487273" xlink:href="#m0906a379a0" y="307.584"/>
      </g>
     </g>
     <g id="text_9">
      <!-- 4.0 -->
      <defs>
       <path d="M 37.796875 64.3125 
L 12.890625 25.390625 
L 37.796875 25.390625 
z
M 35.203125 72.90625 
L 47.609375 72.90625 
L 47.609375 25.390625 
L 58.015625 25.390625 
L 58.015625 17.1875 
L 47.609375 17.1875 
L 47.609375 0 
L 37.796875 0 
L 37.796875 17.1875 
L 4.890625 17.1875 
L 4.890625 26.703125 
z
" id="DejaVuSans-34"/>
      </defs>
      <g transform="translate(390.53571 322.182437)scale(0.1 -0.1)">
       <use xlink:href="#DejaVuSans-34"/>
       <use x="63.623047" xlink:href="#DejaVuSans-2e"/>
       <use x="95.410156" xlink:href="#DejaVuSans-30"/>
      </g>
     </g>
    </g>
   </g>
   <g id="matplotlib.axis_2">
    <g id="ytick_1">
     <g id="line2d_10">
      <defs>
       <path d="M 0 0 
L -3.5 0 
" id="mb150ec978a" style="stroke:#000000;stroke-width:0.8;"/>
      </defs>
      <g>
       <use style="stroke:#000000;stroke-width:0.8;" x="57.6" xlink:href="#mb150ec978a" y="295.488"/>
      </g>
     </g>
     <g id="text_10">
      <!-- 0.000 -->
      <g transform="translate(21.971875 299.287219)scale(0.1 -0.1)">
       <use xlink:href="#DejaVuSans-30"/>
       <use x="63.623047" xlink:href="#DejaVuSans-2e"/>
       <use x="95.410156" xlink:href="#DejaVuSans-30"/>
       <use x="159.033203" xlink:href="#DejaVuSans-30"/>
       <use x="222.65625" xlink:href="#DejaVuSans-30"/>
      </g>
     </g>
    </g>
    <g id="ytick_2">
     <g id="line2d_11">
      <g>
       <use style="stroke:#000000;stroke-width:0.8;" x="57.6" xlink:href="#mb150ec978a" y="264.825827"/>
      </g>
     </g>
     <g id="text_11">
      <!-- 0.025 -->
      <g transform="translate(21.971875 268.625046)scale(0.1 -0.1)">
       <use xlink:href="#DejaVuSans-30"/>
       <use x="63.623047" xlink:href="#DejaVuSans-2e"/>
       <use x="95.410156" xlink:href="#DejaVuSans-30"/>
       <use x="159.033203" xlink:href="#DejaVuSans-32"/>
       <use x="222.65625" xlink:href="#DejaVuSans-35"/>
      </g>
     </g>
    </g>
    <g id="ytick_3">
     <g id="line2d_12">
      <g>
       <use style="stroke:#000000;stroke-width:0.8;" x="57.6" xlink:href="#mb150ec978a" y="234.163654"/>
      </g>
     </g>
     <g id="text_12">
      <!-- 0.050 -->
      <g transform="translate(21.971875 237.962873)scale(0.1 -0.1)">
       <use xlink:href="#DejaVuSans-30"/>
       <use x="63.623047" xlink:href="#DejaVuSans-2e"/>
       <use x="95.410156" xlink:href="#DejaVuSans-30"/>
       <use x="159.033203" xlink:href="#DejaVuSans-35"/>
       <use x="222.65625" xlink:href="#DejaVuSans-30"/>
      </g>
     </g>
    </g>
    <g id="ytick_4">
     <g id="line2d_13">
      <g>
       <use style="stroke:#000000;stroke-width:0.8;" x="57.6" xlink:href="#mb150ec978a" y="203.501482"/>
      </g>
     </g>
     <g id="text_13">
      <!-- 0.075 -->
      <defs>
       <path d="M 8.203125 72.90625 
L 55.078125 72.90625 
L 55.078125 68.703125 
L 28.609375 0 
L 18.3125 0 
L 43.21875 64.59375 
L 8.203125 64.59375 
z
" id="DejaVuSans-37"/>
      </defs>
      <g transform="translate(21.971875 207.3007)scale(0.1 -0.1)">
       <use xlink:href="#DejaVuSans-30"/>
       <use x="63.623047" xlink:href="#DejaVuSans-2e"/>
       <use x="95.410156" xlink:href="#DejaVuSans-30"/>
       <use x="159.033203" xlink:href="#DejaVuSans-37"/>
       <use x="222.65625" xlink:href="#DejaVuSans-35"/>
      </g>
     </g>
    </g>
    <g id="ytick_5">
     <g id="line2d_14">
      <g>
       <use style="stroke:#000000;stroke-width:0.8;" x="57.6" xlink:href="#mb150ec978a" y="172.839309"/>
      </g>
     </g>
     <g id="text_14">
      <!-- 0.100 -->
      <g transform="translate(21.971875 176.638528)scale(0.1 -0.1)">
       <use xlink:href="#DejaVuSans-30"/>
       <use x="63.623047" xlink:href="#DejaVuSans-2e"/>
       <use x="95.410156" xlink:href="#DejaVuSans-31"/>
       <use x="159.033203" xlink:href="#DejaVuSans-30"/>
       <use x="222.65625" xlink:href="#DejaVuSans-30"/>
      </g>
     </g>
    </g>
    <g id="ytick_6">
     <g id="line2d_15">
      <g>
       <use style="stroke:#000000;stroke-width:0.8;" x="57.6" xlink:href="#mb150ec978a" y="142.177136"/>
      </g>
     </g>
     <g id="text_15">
      <!-- 0.125 -->
      <g transform="translate(21.971875 145.976355)scale(0.1 -0.1)">
       <use xlink:href="#DejaVuSans-30"/>
       <use x="63.623047" xlink:href="#DejaVuSans-2e"/>
       <use x="95.410156" xlink:href="#DejaVuSans-31"/>
       <use x="159.033203" xlink:href="#DejaVuSans-32"/>
       <use x="222.65625" xlink:href="#DejaVuSans-35"/>
      </g>
     </g>
    </g>
    <g id="ytick_7">
     <g id="line2d_16">
      <g>
       <use style="stroke:#000000;stroke-width:0.8;" x="57.6" xlink:href="#mb150ec978a" y="111.514963"/>
      </g>
     </g>
     <g id="text_16">
      <!-- 0.150 -->
      <g transform="translate(21.971875 115.314182)scale(0.1 -0.1)">
       <use xlink:href="#DejaVuSans-30"/>
       <use x="63.623047" xlink:href="#DejaVuSans-2e"/>
       <use x="95.410156" xlink:href="#DejaVuSans-31"/>
       <use x="159.033203" xlink:href="#DejaVuSans-35"/>
       <use x="222.65625" xlink:href="#DejaVuSans-30"/>
      </g>
     </g>
    </g>
    <g id="ytick_8">
     <g id="line2d_17">
      <g>
       <use style="stroke:#000000;stroke-width:0.8;" x="57.6" xlink:href="#mb150ec978a" y="80.852791"/>
      </g>
     </g>
     <g id="text_17">
      <!-- 0.175 -->
      <g transform="translate(21.971875 84.652009)scale(0.1 -0.1)">
       <use xlink:href="#DejaVuSans-30"/>
       <use x="63.623047" xlink:href="#DejaVuSans-2e"/>
       <use x="95.410156" xlink:href="#DejaVuSans-31"/>
       <use x="159.033203" xlink:href="#DejaVuSans-37"/>
       <use x="222.65625" xlink:href="#DejaVuSans-35"/>
      </g>
     </g>
    </g>
    <g id="ytick_9">
     <g id="line2d_18">
      <g>
       <use style="stroke:#000000;stroke-width:0.8;" x="57.6" xlink:href="#mb150ec978a" y="50.190618"/>
      </g>
     </g>
     <g id="text_18">
      <!-- 0.200 -->
      <g transform="translate(21.971875 53.989837)scale(0.1 -0.1)">
       <use xlink:href="#DejaVuSans-30"/>
       <use x="63.623047" xlink:href="#DejaVuSans-2e"/>
       <use x="95.410156" xlink:href="#DejaVuSans-32"/>
       <use x="159.033203" xlink:href="#DejaVuSans-30"/>
       <use x="222.65625" xlink:href="#DejaVuSans-30"/>
      </g>
     </g>
    </g>
   </g>
   <g id="line2d_19">
    <path clip-path="url(#pd44aef8b6c)" d="M 73.832727 77.216495 
L 74.61157 77.229319 
L 75.390413 77.26779 
L 76.169256 77.3319 
L 76.948099 77.421638 
L 77.726942 77.536989 
L 78.505785 77.677933 
L 79.284628 77.844445 
L 80.063471 78.036497 
L 80.842314 78.254054 
L 81.621157 78.49708 
L 82.4 78.765533 
L 83.178843 79.059365 
L 83.957686 79.378525 
L 84.736529 79.722959 
L 85.515372 80.092607 
L 86.294215 80.487404 
L 87.073058 80.907282 
L 87.851901 81.352169 
L 88.630744 81.821986 
L 89.409587 82.316653 
L 90.18843 82.836085 
L 90.967273 83.38019 
L 91.746116 83.948874 
L 92.524959 84.54204 
L 93.303802 85.159584 
L 94.082645 85.8014 
L 94.861488 86.467376 
L 95.640331 87.157397 
L 96.419174 87.871343 
L 97.198017 88.609092 
L 97.97686 89.370514 
L 98.755702 90.155479 
L 99.534545 90.963851 
L 100.313388 91.79549 
L 101.092231 92.650252 
L 101.871074 93.52799 
L 102.649917 94.428551 
L 103.42876 95.35178 
L 104.207603 96.297517 
L 104.986446 97.2656 
L 105.765289 98.255861 
L 106.544132 99.268129 
L 107.322975 100.30223 
L 108.101818 101.357984 
L 108.880661 102.435211 
L 109.659504 103.533723 
L 110.438347 104.653333 
L 111.21719 105.793846 
L 111.996033 106.955067 
L 112.774876 108.136795 
L 113.553719 109.338827 
L 114.332562 110.560956 
L 115.111405 111.802973 
L 115.890248 113.064662 
L 116.669091 114.345807 
L 117.447934 115.646189 
L 118.226777 116.965584 
L 119.00562 118.303764 
L 119.784463 119.660501 
L 120.563306 121.035562 
L 121.342149 122.428711 
L 122.120992 123.839708 
L 122.899835 125.268313 
L 123.678678 126.71428 
L 124.457521 128.177362 
L 125.236364 129.657308 
L 126.015207 131.153865 
L 126.79405 132.666778 
L 127.572893 134.195787 
L 128.351736 135.740633 
L 129.130579 137.30105 
L 129.909421 138.876772 
L 130.688264 140.467531 
L 131.467107 142.073056 
L 132.24595 143.693073 
L 133.024793 145.327306 
L 133.803636 146.975477 
L 134.582479 148.637306 
L 135.361322 150.31251 
L 136.140165 152.000805 
L 136.919008 153.701903 
L 137.697851 155.415517 
L 138.476694 157.141356 
L 139.255537 158.879126 
L 140.03438 160.628535 
L 140.813223 162.389286 
L 141.592066 164.16108 
L 142.370909 165.943619 
L 143.149752 167.736602 
L 143.928595 169.539725 
L 144.707438 171.352686 
L 145.486281 173.175177 
L 146.265124 175.006893 
L 147.043967 176.847524 
L 147.82281 178.696763 
L 148.601653 53.568 
L 149.380496 56.70089 
L 150.159339 59.768366 
L 150.938182 62.77257 
" style="fill:none;stroke:#ff0000;stroke-linecap:square;stroke-width:1.5;"/>
   </g>
   <g id="line2d_20">
    <path clip-path="url(#pd44aef8b6c)" d="M 159.054545 90.769607 
L 161.473058 98.103322 
L 163.89157 105.043498 
L 166.310083 111.622053 
L 168.728595 117.867369 
L 171.147107 123.804772 
L 173.56562 129.45695 
L 175.984132 134.844286 
L 178.402645 139.985162 
L 180.821157 144.896194 
L 183.239669 149.592454 
L 185.658182 154.087649 
L 188.076694 158.394273 
L 190.495207 162.523748 
L 192.913719 166.486539 
L 195.332231 170.292255 
L 197.750744 173.94974 
L 200.169256 177.46715 
L 202.587769 180.85202 
L 205.006281 184.111328 
L 207.424793 187.251543 
L 209.843306 190.278679 
L 212.261818 193.19833 
L 214.680331 196.015712 
L 217.098843 198.735693 
L 219.517355 201.362825 
L 221.935868 203.901371 
L 224.35438 206.355327 
L 226.772893 208.728443 
L 229.191405 211.024246 
L 231.609917 213.246053 
L 234.02843 215.396991 
L 236.446942 217.480008 
L 238.865455 219.497888 
L 241.283967 221.453264 
L 243.702479 223.348624 
L 246.120992 225.186328 
L 248.539504 226.96861 
L 250.958017 228.697591 
L 253.376529 230.375285 
L 255.795041 232.003606 
L 258.213554 233.584374 
L 260.632066 235.119322 
L 263.050579 236.610101 
L 265.469091 238.058283 
L 267.887603 239.465371 
L 270.306116 240.832795 
L 272.724628 242.161926 
L 275.14314 243.454072 
L 277.561653 244.710482 
L 279.980165 245.932353 
L 282.398678 247.120833 
L 284.81719 248.277019 
L 287.235702 249.401964 
L 289.654215 250.496676 
L 292.072727 251.562123 
L 294.49124 252.599236 
L 296.909752 253.608908 
L 299.328264 254.591995 
L 301.746777 255.549322 
L 304.165289 256.481683 
L 306.583802 257.38984 
L 309.002314 258.274526 
L 311.420826 259.13645 
L 313.839339 259.976291 
L 316.257851 260.794706 
L 318.676364 261.592327 
L 321.094876 262.369763 
L 323.513388 263.127604 
L 325.931901 263.866415 
L 328.350413 264.586744 
L 330.768926 265.289121 
L 333.187438 265.974056 
L 335.60595 266.642042 
L 338.024463 267.293555 
L 340.442975 267.929057 
L 342.861488 268.548993 
L 345.28 269.153793 
L 347.698512 269.743875 
L 350.117025 270.31964 
L 352.535537 270.881481 
L 354.95405 271.429773 
L 357.372562 271.964884 
L 359.791074 272.487166 
L 362.209587 272.996965 
L 364.628099 273.494611 
L 367.046612 273.980427 
L 369.465124 274.454725 
L 371.883636 274.917808 
L 374.302149 275.36997 
L 376.720661 275.811496 
L 379.139174 276.242661 
L 381.557686 276.663734 
L 383.976198 277.074974 
L 386.394711 277.476635 
L 388.813223 277.86896 
L 391.231736 278.252189 
L 393.650248 278.626551 
L 396.06876 278.992272 
L 398.487273 279.349569 
" style="fill:none;stroke:#ff0000;stroke-linecap:square;stroke-width:1.5;"/>
   </g>
   <g id="line2d_21">
    <path clip-path="url(#pd44aef8b6c)" d="M 73.832727 77.216495 
L 77.112066 77.43333 
L 80.391405 78.083178 
L 83.670744 79.164072 
L 86.950083 80.672742 
L 90.229421 82.604621 
L 93.50876 84.95387 
L 96.788099 87.713388 
L 100.067438 90.874842 
L 103.346777 94.428692 
L 106.626116 98.364225 
L 109.905455 102.66959 
L 113.184793 107.33184 
L 116.464132 112.336972 
L 119.743471 117.669977 
L 123.02281 123.314888 
L 126.302149 129.254839 
L 129.581488 135.472113 
L 132.860826 141.948209 
L 136.140165 148.663901 
L 139.419504 155.5993 
L 142.698843 162.733927 
L 145.978182 170.046772 
L 149.257521 175.905764 
L 152.53686 178.016028 
L 155.816198 180.343607 
L 159.095537 182.826761 
L 162.374876 185.41721 
L 165.654215 188.07707 
L 168.933554 190.77655 
L 172.212893 193.492199 
L 175.492231 196.205558 
L 178.77157 198.902131 
L 182.050909 201.570571 
L 185.330248 204.202051 
L 188.609587 206.789766 
L 191.888926 209.328533 
L 195.168264 211.814485 
L 198.447603 214.244809 
L 201.726942 216.61755 
L 205.006281 218.931447 
L 208.28562 221.185796 
L 211.564959 223.380346 
L 214.844298 225.51521 
L 218.123636 227.590794 
L 221.402975 229.607736 
L 224.682314 231.566859 
L 227.961653 233.469133 
L 231.240992 235.315637 
L 234.520331 237.107538 
L 237.799669 238.846068 
L 241.079008 240.5325 
L 244.358347 242.16814 
L 247.637686 243.754311 
L 250.917025 245.292344 
L 254.196364 246.78357 
L 257.475702 248.229311 
L 260.755041 249.630876 
L 264.03438 250.98956 
L 267.313719 252.306633 
L 270.593058 253.583345 
L 273.872397 254.820919 
L 277.151736 256.02055 
L 280.431074 257.183407 
L 283.710413 258.310627 
L 286.989752 259.403318 
L 290.269091 260.46256 
L 293.54843 261.4894 
L 296.827769 262.484858 
L 300.107107 263.44992 
L 303.386446 264.385547 
L 306.665785 265.292668 
L 309.945124 266.172186 
L 313.224463 267.024972 
L 316.503802 267.851873 
L 319.78314 268.65371 
L 323.062479 269.431274 
L 326.341818 270.185334 
L 329.621157 270.916634 
L 332.900496 271.625891 
L 336.179835 272.313803 
L 339.459174 272.981042 
L 342.738512 273.62826 
L 346.017851 274.256086 
L 349.29719 274.865131 
L 352.576529 275.455983 
L 355.855868 276.029213 
L 359.135207 276.585372 
L 362.414545 277.124994 
L 365.693884 277.648594 
L 368.973223 278.156673 
L 372.252562 278.649711 
L 375.531901 279.128178 
L 378.81124 279.592523 
L 382.090579 280.043184 
L 385.369917 280.480585 
L 388.649256 280.905132 
L 391.928595 281.317224 
L 395.207934 281.717241 
L 398.487273 282.105555 
" style="fill:none;stroke:#0000ff;stroke-linecap:square;stroke-width:1.5;"/>
   </g>
   <g id="line2d_22">
    <path clip-path="url(#pd44aef8b6c)" d="M 73.832727 295.488 
L 77.112066 288.803586 
L 80.391405 282.139572 
L 83.670744 275.516289 
L 86.950083 268.95393 
L 90.229421 262.472482 
L 93.50876 256.091657 
L 96.788099 249.830825 
L 100.067438 243.708952 
L 103.346777 237.744532 
L 106.626116 231.955525 
L 109.905455 226.3593 
L 113.184793 220.972573 
L 116.464132 215.81135 
L 119.743471 210.890879 
L 123.02281 206.225595 
L 126.302149 201.82907 
L 129.581488 197.713973 
L 132.860826 193.892027 
L 136.140165 190.373967 
L 139.419504 187.16951 
L 142.698843 184.287322 
L 145.978182 181.734987 
L 149.257521 182.0364 
L 152.53686 188.319987 
L 155.816198 194.101352 
L 159.095537 199.436899 
L 162.374876 204.374796 
L 165.654215 208.956441 
L 168.933554 213.217615 
L 172.212893 217.189419 
L 175.492231 220.899013 
L 178.77157 224.370235 
L 182.050909 227.624091 
L 185.330248 230.679174 
L 188.609587 233.552 
L 191.888926 236.257297 
L 195.168264 238.80824 
L 198.447603 241.216654 
L 201.726942 243.493185 
L 205.006281 245.647444 
L 208.28562 247.688132 
L 211.564959 249.623148 
L 214.844298 251.459677 
L 218.123636 253.204273 
L 221.402975 254.862924 
L 224.682314 256.441118 
L 227.961653 257.943889 
L 231.240992 259.375867 
L 234.520331 260.741317 
L 237.799669 262.044176 
L 241.079008 263.288081 
L 244.358347 264.476401 
L 247.637686 265.61226 
L 250.917025 266.698558 
L 254.196364 267.737992 
L 257.475702 268.733075 
L 260.755041 269.686147 
L 264.03438 270.599396 
L 267.313719 271.474864 
L 270.593058 272.314465 
L 273.872397 273.119989 
L 277.151736 273.893116 
L 280.431074 274.635423 
L 283.710413 275.348392 
L 286.989752 276.033417 
L 290.269091 276.691809 
L 293.54843 277.324804 
L 296.827769 277.933569 
L 300.107107 278.519204 
L 303.386446 279.082748 
L 306.665785 279.625183 
L 309.945124 280.147439 
L 313.224463 280.650396 
L 316.503802 281.134887 
L 319.78314 281.601703 
L 323.062479 282.051592 
L 326.341818 282.485266 
L 329.621157 282.9034 
L 332.900496 283.306637 
L 336.179835 283.695587 
L 339.459174 284.070831 
L 342.738512 284.432921 
L 346.017851 284.782384 
L 349.29719 285.119721 
L 352.576529 285.44541 
L 355.855868 285.759908 
L 359.135207 286.063649 
L 362.414545 286.35705 
L 365.693884 286.640505 
L 368.973223 286.914396 
L 372.252562 287.179082 
L 375.531901 287.434912 
L 378.81124 287.682216 
L 382.090579 287.921311 
L 385.369917 288.1525 
L 388.649256 288.376074 
L 391.928595 288.592312 
L 395.207934 288.80148 
L 398.487273 289.003833 
" style="fill:none;stroke:#008000;stroke-linecap:square;stroke-width:1.5;"/>
   </g>
   <g id="patch_3">
    <path d="M 57.6 307.584 
L 57.6 41.472 
" style="fill:none;stroke:#000000;stroke-linecap:square;stroke-linejoin:miter;stroke-width:0.8;"/>
   </g>
   <g id="patch_4">
    <path d="M 414.72 307.584 
L 414.72 41.472 
" style="fill:none;stroke:#000000;stroke-linecap:square;stroke-linejoin:miter;stroke-width:0.8;"/>
   </g>
   <g id="patch_5">
    <path d="M 57.6 307.584 
L 414.72 307.584 
" style="fill:none;stroke:#000000;stroke-linecap:square;stroke-linejoin:miter;stroke-width:0.8;"/>
   </g>
   <g id="patch_6">
    <path d="M 57.6 41.472 
L 414.72 41.472 
" style="fill:none;stroke:#000000;stroke-linecap:square;stroke-linejoin:miter;stroke-width:0.8;"/>
   </g>
   <g id="legend_1">
    <g id="line2d_23">
     <path d="M 359.72 54.672 
L 379.72 54.672 
" style="fill:none;stroke:#ff0000;stroke-linecap:square;stroke-width:1.5;"/>
    </g>
    <g id="line2d_24"/>
    <g id="text_19">
     <!-- $|E_r|$ -->
     <defs>
      <path d="M 21 76.421875 
L 21 -23.578125 
L 12.703125 -23.578125 
L 12.703125 76.421875 
z
" id="DejaVuSans-7c"/>
      <path d="M 16.890625 72.90625 
L 62.984375 72.90625 
L 61.375 64.59375 
L 25.09375 64.59375 
L 20.90625 43.015625 
L 55.71875 43.015625 
L 54.109375 34.71875 
L 19.28125 34.71875 
L 14.203125 8.296875 
L 51.3125 8.296875 
L 49.703125 0 
L 2.6875 0 
z
" id="DejaVuSans-Oblique-45"/>
      <path d="M 44.578125 46.390625 
Q 43.21875 47.125 41.453125 47.515625 
Q 39.703125 47.90625 37.703125 47.90625 
Q 30.515625 47.90625 25.140625 42.453125 
Q 19.78125 37.015625 18.015625 27.875 
L 12.5 0 
L 3.515625 0 
L 14.203125 54.6875 
L 23.1875 54.6875 
L 21.484375 46.1875 
Q 25.046875 50.921875 30 53.453125 
Q 34.96875 56 40.578125 56 
Q 42.046875 56 43.453125 55.828125 
Q 44.875 55.671875 46.296875 55.28125 
z
" id="DejaVuSans-Oblique-72"/>
     </defs>
     <g transform="translate(387.72 58.172)scale(0.1 -0.1)">
      <use transform="translate(0 0.578125)" xlink:href="#DejaVuSans-7c"/>
      <use transform="translate(33.691406 0.578125)" xlink:href="#DejaVuSans-Oblique-45"/>
      <use transform="translate(96.875 -15.828125)scale(0.7)" xlink:href="#DejaVuSans-Oblique-72"/>
      <use transform="translate(128.388672 0.578125)" xlink:href="#DejaVuSans-7c"/>
     </g>
    </g>
    <g id="line2d_25">
     <path d="M 359.72 69.772 
L 379.72 69.772 
" style="fill:none;stroke:#0000ff;stroke-linecap:square;stroke-width:1.5;"/>
    </g>
    <g id="line2d_26"/>
    <g id="text_20">
     <!-- $|E_{\phi}|$ -->
     <defs>
      <path d="M 46.734375 75.984375 
L 42.78125 55.8125 
Q 52.546875 55.8125 57.5625 48.34375 
Q 62.75 40.71875 60.15625 27.296875 
Q 57.515625 13.875 49.359375 6.25 
Q 41.453125 -1.21875 31.6875 -1.21875 
L 27.875 -20.796875 
L 18.953125 -20.796875 
L 22.75 -1.21875 
Q 13.03125 -1.21875 7.953125 6.25 
Q 2.78125 13.875 5.421875 27.296875 
Q 8.015625 40.71875 16.15625 48.34375 
Q 24.125 55.8125 33.84375 55.8125 
L 37.796875 75.984375 
z
M 33.25 6.78125 
Q 38.765625 6.78125 43.5 11.8125 
Q 48.6875 17.4375 50.6875 27.296875 
Q 52.640625 37.0625 49.515625 42.78125 
Q 46.734375 47.796875 41.21875 47.796875 
z
M 24.3125 6.78125 
L 32.28125 47.796875 
Q 26.8125 47.796875 22.078125 42.78125 
Q 16.75 37.0625 14.890625 27.296875 
Q 13.03125 17.4375 16.0625 11.8125 
Q 18.796875 6.78125 24.3125 6.78125 
" id="DejaVuSans-Oblique-3d5"/>
     </defs>
     <g transform="translate(387.72 73.272)scale(0.1 -0.1)">
      <use transform="translate(0 0.578125)" xlink:href="#DejaVuSans-7c"/>
      <use transform="translate(33.691406 0.578125)" xlink:href="#DejaVuSans-Oblique-45"/>
      <use transform="translate(96.875 -15.828125)scale(0.7)" xlink:href="#DejaVuSans-Oblique-3d5"/>
      <use transform="translate(145.786133 0.578125)" xlink:href="#DejaVuSans-7c"/>
     </g>
    </g>
    <g id="line2d_27">
     <path d="M 359.72 85.572 
L 379.72 85.572 
" style="fill:none;stroke:#008000;stroke-linecap:square;stroke-width:1.5;"/>
    </g>
    <g id="line2d_28"/>
    <g id="text_21">
     <!-- $|E_z|$ -->
     <defs>
      <path d="M 11.625 54.6875 
L 54.296875 54.6875 
L 52.6875 46.484375 
L 11.53125 7.171875 
L 45.515625 7.171875 
L 44.09375 0 
L -0.296875 0 
L 1.3125 8.203125 
L 42.484375 47.515625 
L 10.203125 47.515625 
z
" id="DejaVuSans-Oblique-7a"/>
     </defs>
     <g transform="translate(387.72 89.072)scale(0.1 -0.1)">
      <use transform="translate(0 0.578125)" xlink:href="#DejaVuSans-7c"/>
      <use transform="translate(33.691406 0.578125)" xlink:href="#DejaVuSans-Oblique-45"/>
      <use transform="translate(96.875 -15.828125)scale(0.7)" xlink:href="#DejaVuSans-Oblique-7a"/>
      <use transform="translate(136.352539 0.578125)" xlink:href="#DejaVuSans-7c"/>
     </g>
    </g>
   </g>
  </g>
 </g>
 <defs>
  <clipPath id="pd44aef8b6c">
   <rect height="266.112" width="357.12" x="57.6" y="41.472"/>
  </clipPath>
 </defs>
</svg>
